<?xml version="1.0" encoding="utf-8"?>
<!-- Generator: Adobe Illustrator 16.0.0, SVG Export Plug-In . SVG Version: 6.00 Build 0)  -->
<!DOCTYPE svg PUBLIC "-//W3C//DTD SVG 1.1//EN" "http://www.w3.org/Graphics/SVG/1.1/DTD/svg11.dtd">
<svg version="1.1" id="Calque_1" xmlns="http://www.w3.org/2000/svg" xmlns:xlink="http://www.w3.org/1999/xlink" x="0px" y="0px"
	 width="800px" height="800px" viewBox="0 0 800 800" enable-background="new 0 0 800 800" xml:space="preserve">
<rect x="255.108" y="488.214" fill="#FFFFFF" width="285.713" height="100"/>
<g>
	<g>
		<path fill="#2B519F" d="M317.264,527.522c-0.451,14.466-12.746,25.815-27.461,25.353c-14.717-0.466-26.283-12.568-25.831-27.034
			c0.45-14.465,12.746-25.814,27.464-25.351C306.151,500.955,317.715,513.059,317.264,527.522z"/>
		<g>
			<path fill-rule="evenodd" clip-rule="evenodd" fill="#0080BE" d="M323.433,519.992c0.046,0.309,0.091,0.617,0.134,0.927
				c-0.107,0.329-0.079,0.627,0.202,0.871c-0.062,0.145-0.048,0.284,0.039,0.415c0.686,8.452-1.173,16.318-6.222,23.199
				c-7.32,9.974-14.892,19.767-22.365,29.634c-1.651,2.183-3.328,4.348-4.982,6.529c-0.832,1.094-1.492,1.197-2.34-0.081
				c-7.727-11.645-15.693-23.144-23.179-34.937c-4.172-6.572-7.417-13.654-7.067-21.768c0.639-14.818,11.454-27.522,26.208-30.576
				c5.474-1.134,10.952-0.931,16.36,0.569c0.459,0.14,0.917,0.278,1.374,0.418c0.406,0.138,0.813,0.277,1.22,0.416
				c0,0,1.311,0.563,1.964,0.793c5.736,3.078,10.721,6.952,14.171,12.551c2.043,3.314,3.27,6.928,4.415,10.588
				C323.387,519.691,323.411,519.842,323.433,519.992z M290.129,551.688c14.376,0.851,26.181-11.526,26.667-24.191
				c0.559-14.584-10.35-26.237-25.066-26.866c-15.016-0.643-26.178,11.108-26.899,24.036
				C264.038,538.88,275.168,551.241,290.129,551.688z"/>
		</g>
		<g>
			<defs>
				<polygon id="SVGID_1_" points="259.538,553.868 319.374,555.756 321.207,496.94 261.372,495.052 				"/>
			</defs>
			<clipPath id="SVGID_2_">
				<use xlink:href="#SVGID_1_"  overflow="visible"/>
			</clipPath>
			<g clip-path="url(#SVGID_2_)">
				<defs>
					<polygon id="SVGID_3_" points="261.372,495.052 321.207,496.94 319.374,555.756 259.538,553.868 					"/>
				</defs>
				<clipPath id="SVGID_4_">
					<use xlink:href="#SVGID_3_"  overflow="visible"/>
				</clipPath>
				<g opacity="0.85" clip-path="url(#SVGID_4_)">
					<g>
						<defs>
							<polygon id="SVGID_5_" points="264.571,550.452 307.33,551.801 308.398,517.536 265.64,516.188 265.307,526.868 							"/>
						</defs>
						<clipPath id="SVGID_6_">
							<use xlink:href="#SVGID_5_"  overflow="visible"/>
						</clipPath>
					</g>
				</g>
				<path clip-path="url(#SVGID_4_)" fill="#FFFFFF" d="M289.498,514.909c-0.079,2.501-2.205,4.462-4.75,4.384
					c-2.544-0.082-4.542-2.173-4.463-4.675c0.077-2.5,2.202-4.462,4.746-4.382C287.577,510.316,289.576,512.409,289.498,514.909"/>
				<path clip-path="url(#SVGID_4_)" fill="#FFFFFF" d="M288.969,513.611c-0.056,1.827-1.608,3.262-3.467,3.202
					c-1.861-0.058-3.321-1.587-3.264-3.415c0.056-1.827,1.608-3.261,3.469-3.202C287.566,510.255,289.026,511.785,288.969,513.611"
					/>
				<path clip-path="url(#SVGID_4_)" fill="#FFFFFF" d="M292.319,516.177c-0.078,2.501-2.203,4.463-4.747,4.383
					c-2.544-0.08-4.544-2.172-4.466-4.673c0.078-2.5,2.203-4.463,4.749-4.384C290.398,511.585,292.397,513.677,292.319,516.177"/>
				<path clip-path="url(#SVGID_4_)" fill="#FFFFFF" d="M291.89,517.626c-0.063,2.035-1.795,3.633-3.866,3.567
					c-2.07-0.065-3.697-1.769-3.634-3.805c0.062-2.036,1.794-3.634,3.865-3.568C290.325,513.886,291.954,515.589,291.89,517.626"/>
				<path clip-path="url(#SVGID_4_)" fill="#FFFFFF" d="M296.95,518.566c-0.079,2.501-2.204,4.462-4.746,4.382
					c-2.544-0.08-4.545-2.171-4.467-4.673c0.079-2.5,2.203-4.463,4.747-4.382C295.029,513.974,297.027,516.065,296.95,518.566"/>
				<path clip-path="url(#SVGID_4_)" fill="#FFFFFF" d="M303.658,518.972c-0.057,1.859-1.637,3.32-3.531,3.26
					c-1.889-0.06-3.374-1.615-3.316-3.476c0.057-1.859,1.637-3.318,3.527-3.259C302.229,515.558,303.717,517.112,303.658,518.972"/>
				<path clip-path="url(#SVGID_4_)" fill="#FFFFFF" d="M305.197,521.116c-0.076,2.5-2.202,4.461-4.746,4.382
					c-2.544-0.08-4.543-2.172-4.464-4.673c0.077-2.501,2.203-4.462,4.747-4.382C303.277,516.523,305.276,518.615,305.197,521.116"/>
				<path clip-path="url(#SVGID_4_)" fill="#FFFFFF" d="M308.575,521.541c-0.078,2.501-2.204,4.464-4.748,4.383
					c-2.544-0.08-4.543-2.172-4.465-4.673c0.078-2.501,2.204-4.462,4.748-4.382C306.654,516.949,308.653,519.041,308.575,521.541"/>
				<path clip-path="url(#SVGID_4_)" fill="#FFFFFF" d="M308.383,521.585c-0.078,2.5-2.203,4.462-4.747,4.381
					c-2.545-0.079-4.543-2.172-4.466-4.672c0.079-2.501,2.202-4.464,4.748-4.382C306.463,516.991,308.461,519.084,308.383,521.585"
					/>
				<path clip-path="url(#SVGID_4_)" fill="#FFFFFF" d="M298.842,519.55c-0.053,1.653-1.458,2.951-3.142,2.897
					c-1.682-0.053-3.004-1.436-2.952-3.09s1.458-2.952,3.139-2.898C297.571,516.512,298.893,517.895,298.842,519.55"/>
				<path clip-path="url(#SVGID_4_)" fill="#F59E22" d="M311.229,525.664l-2.981-0.095l0.089-2.87L292.52,522.2l-0.592,18.993
					c-0.026,0.831,0.639,1.526,1.484,1.553l12.757,0.404c0.844,0.025,1.55-0.626,1.577-1.457l0.059-1.89
					c4.117-1.714,5.983-3.418,6.049-5.524l0.182-5.818C314.084,526.868,312.93,525.717,311.229,525.664 M311.405,534.202
					c-0.029,0.972-0.684,1.74-3.517,2.934l0.285-9.159l2.982,0.094c0.44,0.014,0.436,0.16,0.431,0.313L311.405,534.202z"/>
				<path clip-path="url(#SVGID_4_)" fill="#F59E22" d="M273.891,510.72l-4.314,3.981c-1.563,1.442-1.625,3.947-0.209,8.12
					l-1.401,1.292c-0.616,0.569-0.645,1.522-0.066,2.129l8.746,9.15c0.579,0.606,1.548,0.637,2.164,0.069l14.081-13l-10.841-11.346
					l-2.128,1.962l-2.043-2.138C276.711,509.72,275.071,509.63,273.891,510.72 M275.568,512.478
					c0.115-0.106,0.223-0.206,0.525,0.108l2.043,2.14l-6.792,6.269c-0.964-2.88-0.809-3.871-0.087-4.535L275.568,512.478z"/>
				<polygon clip-path="url(#SVGID_4_)" fill="#FFFFFF" points="291.868,509.305 291.381,503.861 291.948,503.813 292.434,509.259 
									"/>
				<polygon clip-path="url(#SVGID_4_)" fill="#FFFFFF" points="298.513,510.537 298.04,510.226 301.131,505.688 301.602,506 				
					"/>
				<polygon clip-path="url(#SVGID_4_)" fill="#FFFFFF" points="302.686,513.959 302.347,513.513 306.794,510.242 307.136,510.69 
									"/>
			</g>
		</g>
	</g>
</g>
<g>
	<g>
		<path fill="#0080BF" d="M382.873,527.221c7.003-8.215,15.291-19.548,14.823-25.936c-0.116-2.968-2.568-3.805-3.676-3.88
			c-9.746-0.912-25.387,8.671-36.941,23.122c-12.373,15.82-20.777,33.998-19.259,47.005c0.642,5.779,4.552,9.279,10.271,9.279
			c12.43,0,34.257-16.202,54.332-40.769c0.876-1.064,0.7,0.456,0.352,0.913c-11.497,16.124-33.85,44.268-49.198,45.027
			c-6.594,0.38-21.009-4.563-21.943-19.623c-0.7-12.17,6.302-28.599,16.691-41.91c11.905-15.135,28.537-27.381,40.618-27.381
			c8.403,0,13.015,8.747,13.306,12.474c0.467,5.477-7.528,16.887-19.024,22.97C382.581,529.046,381.764,528.513,382.873,527.221z"/>
		<path fill="#0080BF" d="M408.497,539.771c2.451-3.12,12.781-15.214,15.349-15.214c0.759,0,1.459,0.762,2.101,1.599
			c1.285,1.749,3.094,5.399,3.034,6.313c0,0.151-0.057,0.304-0.115,0.457c-2.86,4.411-4.903,7.072-8.579,13.689
			c-3.269,5.856-5.895,11.181-5.953,12.778c0,0.228,0.059,0.381,0.292,0.381c1.283,0,10.972-10.345,18.85-20.232
			c0.409-0.531,0.816,0.075,0.525,0.608c-1.284,2.13-4.377,6.846-7.878,11.561c-3.794,5.021-10.681,13.692-12.547,13.692
			c-2.218,0-5.311-5.021-5.137-7.912c0-0.227,0.059-0.531,0.117-0.76c0.408-1.521,2.685-6.541,7.587-15.364
			c2.742-4.943,7.295-12.093,7.295-12.321c0-0.152-0.116-0.152-0.116-0.152c-0.409,0-6.479,3.955-13.599,12.778
			c-3.151,3.955-6.478,7.834-9.396,12.398c-2.685,4.259-5.369,8.898-5.369,10.19c0,0.229,0.059,0.533,0.116,0.608
			c0.467,0.534-0.116,0.837-0.816,0.685c-0.759-0.15-4.027-4.944-3.501-7.453c0.758-3.498,6.127-14.223,11.438-23.807
			c5.72-10.421,12.956-23.351,15.466-29.436c1.283-3.117,1.81-5.628,0.759-6.313c-0.059,0,0.466-0.608,1.926,0.988
			c1.166,1.294,3.734,5.857,3.677,6.922c0,0.152-0.06,0.304-0.118,0.457l-14.939,27.381c-2.685,4.943-5.427,9.659-8.929,17.037
			C401.436,548.897,405.521,543.498,408.497,539.771z"/>
	</g>
	<g>
		<path fill="#F59E21" d="M452.802,524.635c3.561,0,6.771,4.716,6.771,8.594c0,3.805-14.474,16.354-25.153,16.43
			c-2.217,4.031-3.034,7.606-3.151,9.204c-0.059,1.14,0.584,1.596,1.518,1.596c3.093,0,8.52-3.575,12.08-6.084
			c5.253-3.651,11.789-8.976,17.218-14.832c0.232-0.229,0.815,0.38,0.582,0.685c-7.995,11.104-22.993,25.177-28.83,25.177
			c-2.801,0-7.586-5.858-7.645-9.585c-0.059-2.738,1.05-6.085,2.801-9.507c2.976-5.781,8.287-12.093,12.897-15.974
			C445.975,526.916,449.826,524.635,452.802,524.635z M435.646,547.68c4.667-1.217,10.737-6.008,14.764-9.887
			c4.261-4.107,5.895-7.379,5.895-8.291c0-0.685-0.35-0.836-0.759-0.836C450.877,528.666,441.539,538.781,435.646,547.68z"/>
		<path fill="#F59E21" d="M481.4,524.635c3.559,0,6.769,4.716,6.769,8.594c0,3.805-14.472,16.354-25.151,16.43
			c-2.219,4.031-3.035,7.606-3.152,9.204c-0.059,1.14,0.584,1.596,1.518,1.596c3.093,0,8.521-3.575,12.079-6.084
			c5.255-3.651,11.789-8.976,17.217-14.832c0.234-0.229,0.817,0.38,0.584,0.685c-7.995,11.104-22.994,25.177-28.83,25.177
			c-2.801,0-7.586-5.858-7.646-9.585c-0.058-2.738,1.052-6.085,2.802-9.507c2.977-5.781,8.287-12.093,12.897-15.974
			C474.572,526.916,478.424,524.635,481.4,524.635z M464.242,547.68c4.669-1.217,10.738-6.008,14.765-9.887
			c4.261-4.107,5.895-7.379,5.895-8.291c0-0.685-0.351-0.836-0.759-0.836C479.475,528.666,470.137,538.781,464.242,547.68z"/>
	</g>
	<path fill="#0080BF" d="M486.993,559.318c-1.108,2.663-1.458,4.411-1.284,4.791c0.409,0.457-0.115,0.761-0.758,0.608
		c-0.643-0.151-3.793-4.715-3.209-6.997c0.35-1.369,1.108-3.118,2.218-5.324l3.033-5.856c2.393-4.563,6.478-12.169,7.937-15.061
		c1.46-2.967,2.276-5.856,1.227-6.541c-0.059,0,0.466-0.607,1.926,0.989c1.167,1.293,3.21,4.944,3.151,6.009
		c0,0.913-2.51,5.172-5.487,10.344c1.46-2.129,3.035-4.183,4.729-6.236c3.326-3.88,10.212-11.562,12.956-12.322
		c1.227-0.304,3.21,3.043,3.035,6.694c-0.059,0.987-0.351,3.346-1.168,4.334c0.059-0.76-0.175-1.597-0.524-2.281
		c-0.467-0.836-1.692-1.597-3.268-1.37c-3.561,0.534-7.18,3.651-11.44,8.368C493.88,546.236,489.386,553.537,486.993,559.318z
		 M527.675,544.334c-0.234,3.88-0.234,7.606-0.467,10.421c-0.467,6.084-4.787,10.724-9.921,10.724c-4.553,0-8.932-3.65-12.022-8.214
		c-4.729,4.639-8.229,6.616-8.93,6.845c-0.934,0.305-3.911,0.837-3.561,0.685c2.742-1.141,6.944-5.02,11.438-9.583
		c-0.292-0.761-0.467-1.521-0.467-2.207c0-2.813,4.145-5.02,8.696-6.692c1.635-1.902,3.269-3.955,4.785-6.01
		c3.502-4.563,7.938-12.474,9.862-16.353c0.643-1.368,1.343-2.053,2.042-2.053c1.344,0,4.612,3.119,4.612,3.955
		c0,0.152,0,0.152-0.176,0.229c-1.751,0.531-2.568,2.433-3.501,4.792c-1.459,3.727-2.044,7.909-2.335,12.018
		c3.326-0.458,7.003-0.913,8.462-0.989c0.06,0,0.642,0,0.642,0.38c0,0.685-0.582,0.685-0.7,0.685
		C533.86,543.269,530.359,543.802,527.675,544.334z M515.127,562.893c2.16,0,4.26-2.129,5.193-6.237
		c0.76-3.347,1.285-7.377,1.693-10.953l-1.576,0.534c-4.494,1.673-11.849,6.313-11.849,9.051
		C508.589,558.253,511.684,562.893,515.127,562.893z M522.247,543.802c0.291-3.271,0.699-6.389,1.575-9.889
		c-2.101,3.348-4.786,6.922-8.111,11.41C517.812,544.714,520.029,544.183,522.247,543.802z"/>
</g>
</svg>
