<?xml version="1.0" encoding="utf-8"?>
<!-- Generator: Adobe Illustrator 16.0.0, SVG Export Plug-In . SVG Version: 6.00 Build 0)  -->
<!DOCTYPE svg PUBLIC "-//W3C//DTD SVG 1.1//EN" "http://www.w3.org/Graphics/SVG/1.1/DTD/svg11.dtd">
<svg version="1.1" id="Calque_1" xmlns="http://www.w3.org/2000/svg" xmlns:xlink="http://www.w3.org/1999/xlink" x="0px" y="0px"
	 width="800px" height="800px" viewBox="0 0 800 800" enable-background="new 0 0 800 800" xml:space="preserve">
<g>
	<g>
		<path fill="#0080BE" d="M229.927,232.999c-0.895,28.703-25.29,51.224-54.49,50.305c-29.204-0.923-52.152-24.938-51.256-53.643
			c0.894-28.701,25.291-51.222,54.496-50.302C207.876,180.281,230.821,204.298,229.927,232.999z"/>
		<g>
			<path fill-rule="evenodd" clip-rule="evenodd" fill="#FFFFFF" d="M242.168,218.057c0.092,0.611,0.18,1.225,0.266,1.839
				c-0.213,0.653-0.156,1.244,0.4,1.728c-0.124,0.288-0.095,0.564,0.078,0.824c1.36,16.771-2.328,32.379-12.345,46.033
				c-14.525,19.791-29.55,39.223-44.378,58.802c-3.276,4.331-6.603,8.626-9.886,12.955c-1.65,2.17-2.96,2.376-4.643-0.161
				c-15.333-23.105-31.138-45.923-45.994-69.322c-8.278-13.042-14.716-27.095-14.022-43.192
				c1.268-29.404,22.728-54.611,52.002-60.672c10.861-2.249,21.731-1.847,32.463,1.131c0.911,0.276,1.818,0.551,2.725,0.829
				c0.805,0.273,1.612,0.55,2.421,0.825c0,0,2.601,1.118,3.896,1.573c11.381,6.107,21.274,13.794,28.12,24.903
				c4.054,6.578,6.488,13.746,8.761,21.009C242.076,217.46,242.125,217.759,242.168,218.057z M176.085,280.949
				c28.527,1.689,51.95-22.871,52.913-48.002c1.108-28.938-20.537-52.062-49.737-53.309c-29.795-1.275-51.944,22.042-53.375,47.693
				C124.313,255.535,146.397,280.063,176.085,280.949z"/>
		</g>
		<g>
			<defs>
				<polygon id="SVGID_1_" points="115.383,285.275 234.113,289.021 237.75,172.316 119.021,168.568 				"/>
			</defs>
			<clipPath id="SVGID_2_">
				<use xlink:href="#SVGID_1_"  overflow="visible"/>
			</clipPath>
			<g clip-path="url(#SVGID_2_)">
				<defs>
					<polygon id="SVGID_3_" points="119.021,168.568 237.75,172.316 234.113,289.021 115.383,285.275 					"/>
				</defs>
				<clipPath id="SVGID_4_">
					<use xlink:href="#SVGID_3_"  overflow="visible"/>
				</clipPath>
				<g opacity="0.85" clip-path="url(#SVGID_4_)">
					<g>
						<defs>
							<polygon id="SVGID_5_" points="125.37,278.496 210.215,281.173 212.334,213.183 127.491,210.506 126.83,231.7 							"/>
						</defs>
						<clipPath id="SVGID_6_">
							<use xlink:href="#SVGID_5_"  overflow="visible"/>
						</clipPath>
					</g>
				</g>
				<path clip-path="url(#SVGID_4_)" fill="#FFFFFF" d="M174.833,207.971c-0.156,4.963-4.375,8.854-9.425,8.697
					c-5.047-0.161-9.012-4.311-8.856-9.274c0.152-4.961,4.369-8.854,9.417-8.695C171.02,198.856,174.986,203.01,174.833,207.971"/>
				<path clip-path="url(#SVGID_4_)" fill="#FFFFFF" d="M173.782,205.396c-0.112,3.626-3.192,6.471-6.881,6.354
					c-3.693-0.114-6.59-3.149-6.477-6.775c0.112-3.627,3.191-6.471,6.884-6.354C171,198.734,173.895,201.771,173.782,205.396"/>
				<path clip-path="url(#SVGID_4_)" fill="#FFFFFF" d="M180.43,210.486c-0.155,4.962-4.371,8.855-9.418,8.695
					c-5.048-0.159-9.017-4.31-8.861-9.271c0.154-4.961,4.371-8.855,9.422-8.699C176.618,201.374,180.584,205.525,180.43,210.486"/>
				<path clip-path="url(#SVGID_4_)" fill="#FFFFFF" d="M179.578,213.36c-0.125,4.039-3.562,7.21-7.67,7.079
					c-4.108-0.13-7.336-3.509-7.211-7.549c0.124-4.04,3.561-7.211,7.669-7.081C176.472,205.939,179.705,209.319,179.578,213.36"/>
				<path clip-path="url(#SVGID_4_)" fill="#FFFFFF" d="M189.619,215.228c-0.157,4.963-4.373,8.854-9.416,8.694
					c-5.048-0.159-9.019-4.309-8.864-9.271c0.156-4.962,4.372-8.856,9.42-8.695C185.807,206.113,189.771,210.265,189.619,215.228"/>
				<path clip-path="url(#SVGID_4_)" fill="#FFFFFF" d="M202.928,216.032c-0.113,3.689-3.248,6.587-7.006,6.468
					c-3.749-0.119-6.695-3.206-6.581-6.897c0.113-3.688,3.248-6.583,6.999-6.466C200.095,209.257,203.045,212.342,202.928,216.032"
					/>
				<path clip-path="url(#SVGID_4_)" fill="#FFFFFF" d="M205.983,220.286c-0.151,4.961-4.37,8.853-9.418,8.695
					c-5.048-0.159-9.015-4.31-8.858-9.272c0.153-4.962,4.372-8.854,9.419-8.695C202.174,211.173,206.141,215.323,205.983,220.286"/>
				<path clip-path="url(#SVGID_4_)" fill="#FFFFFF" d="M212.686,221.13c-0.154,4.963-4.373,8.856-9.42,8.696
					c-5.048-0.158-9.015-4.31-8.86-9.271c0.155-4.963,4.373-8.854,9.42-8.696C208.874,212.018,212.84,216.168,212.686,221.13"/>
				<path clip-path="url(#SVGID_4_)" fill="#FFFFFF" d="M212.306,221.217c-0.155,4.961-4.372,8.854-9.419,8.693
					c-5.05-0.158-9.015-4.31-8.861-9.271c0.156-4.964,4.37-8.857,9.42-8.695C208.495,212.102,212.459,216.254,212.306,221.217"/>
				<path clip-path="url(#SVGID_4_)" fill="#FFFFFF" d="M193.372,217.178c-0.104,3.281-2.893,5.856-6.233,5.751
					c-3.337-0.106-5.96-2.85-5.857-6.133c0.102-3.282,2.892-5.856,6.228-5.751C190.85,211.15,193.474,213.895,193.372,217.178"/>
				<path clip-path="url(#SVGID_4_)" fill="#F59E22" d="M217.953,229.311l-5.916-0.188l0.176-5.693l-31.386-0.99l-1.174,37.688
					c-0.051,1.647,1.268,3.028,2.944,3.081l25.314,0.802c1.674,0.051,3.076-1.242,3.128-2.892l0.116-3.75
					c8.169-3.4,11.873-6.782,12.003-10.962l0.36-11.545C223.618,231.699,221.327,229.416,217.953,229.311 M218.301,246.252
					c-0.059,1.928-1.356,3.453-6.978,5.821l0.565-18.175l5.917,0.188c0.874,0.027,0.865,0.317,0.855,0.621L218.301,246.252z"/>
				<path clip-path="url(#SVGID_4_)" fill="#F59E22" d="M143.864,199.658l-8.561,7.9c-3.101,2.86-3.226,7.832-0.417,16.112
					l-2.78,2.563c-1.223,1.129-1.28,3.02-0.132,4.224l17.354,18.157c1.148,1.202,3.072,1.264,4.293,0.137l27.939-25.795
					l-21.511-22.514l-4.223,3.895l-4.055-4.242C149.459,197.673,146.206,197.494,143.864,199.658 M147.192,203.145
					c0.228-0.21,0.441-0.408,1.042,0.217l4.053,4.244l-13.477,12.438c-1.913-5.714-1.604-7.68-0.173-8.999L147.192,203.145z"/>
				<polygon clip-path="url(#SVGID_4_)" fill="#FFFFFF" points="179.535,196.851 178.569,186.049 179.693,185.951 180.657,196.758 
									"/>
				<polygon clip-path="url(#SVGID_4_)" fill="#FFFFFF" points="192.72,199.295 191.78,198.677 197.915,189.675 198.849,190.292 
									"/>
				<polygon clip-path="url(#SVGID_4_)" fill="#FFFFFF" points="201,206.086 200.327,205.199 209.153,198.709 209.83,199.599 				
					"/>
			</g>
		</g>
	</g>
</g>
<g>
	<g>
		<path fill="#FFFFFF" d="M360.112,232.399c13.897-16.3,30.341-38.787,29.413-51.463c-0.23-5.889-5.095-7.55-7.294-7.699
			c-19.339-1.81-50.374,17.205-73.302,45.881c-24.551,31.393-41.226,67.462-38.215,93.27c1.273,11.469,9.032,18.413,20.381,18.413
			c24.665,0,67.975-32.148,107.809-80.896c1.738-2.111,1.39,0.905,0.697,1.813c-22.813,31.994-67.167,87.837-97.622,89.346
			c-13.084,0.754-41.688-9.057-43.541-38.938c-1.39-24.147,12.505-56.747,33.12-83.159c23.623-30.031,56.625-54.332,80.596-54.332
			c16.675,0,25.824,17.357,26.402,24.752c0.926,10.867-14.938,33.507-37.75,45.578C359.532,236.021,357.912,234.964,360.112,232.399
			z"/>
		<path fill="#FFFFFF" d="M410.956,257.303c4.865-6.189,25.361-30.187,30.457-30.187c1.506,0,2.895,1.511,4.168,3.171
			c2.549,3.471,6.139,10.715,6.021,12.525c0,0.302-0.113,0.604-0.229,0.907c-5.676,8.753-9.729,14.034-17.023,27.163
			c-6.485,11.622-11.696,22.187-11.813,25.356c0,0.451,0.116,0.755,0.58,0.755c2.547,0,21.771-20.525,37.403-40.146
			c0.811-1.054,1.619,0.15,1.041,1.207c-2.548,4.227-8.684,13.585-15.632,22.94c-7.527,9.961-21.192,27.168-24.896,27.168
			c-4.4,0-10.537-9.963-10.191-15.698c0-0.451,0.115-1.056,0.231-1.509c0.812-3.017,5.327-12.979,15.056-30.486
			c5.441-9.81,14.474-23.995,14.474-24.448c0-0.302-0.229-0.302-0.229-0.302c-0.813,0-12.854,7.847-26.984,25.354
			c-6.252,7.849-12.853,15.545-18.642,24.602c-5.327,8.45-10.655,17.657-10.655,20.222c0,0.453,0.117,1.057,0.231,1.207
			c0.927,1.059-0.231,1.66-1.621,1.358c-1.506-0.3-7.991-9.811-6.948-14.789c1.505-6.942,12.159-28.222,22.697-47.238
			c11.349-20.678,25.707-46.334,30.687-58.409c2.547-6.186,3.591-11.166,1.506-12.524c-0.116,0,0.926-1.208,3.821,1.961
			c2.314,2.566,7.411,11.623,7.296,13.734c0,0.302-0.117,0.603-0.233,0.906l-29.644,54.332c-5.327,9.809-10.77,19.166-17.717,33.805
			C396.945,275.412,405.051,264.698,410.956,257.303z"/>
	</g>
	<g>
		<path fill="#F59E21" d="M498.869,227.268c7.065,0,13.434,9.357,13.434,17.053c0,7.549-28.719,32.449-49.91,32.601
			c-4.399,7.999-6.021,15.093-6.254,18.264c-0.115,2.261,1.159,3.167,3.012,3.167c6.137,0,16.905-7.094,23.97-12.072
			c10.423-7.246,23.393-17.811,34.164-29.432c0.462-0.453,1.619,0.755,1.155,1.359c-15.864,22.033-45.624,49.956-57.205,49.956
			c-5.559,0-15.054-11.624-15.17-19.018c-0.115-5.434,2.084-12.074,5.559-18.864c5.904-11.472,16.442-23.996,25.591-31.695
			C485.321,231.795,492.964,227.268,498.869,227.268z M464.826,272.996c9.261-2.414,21.305-11.922,29.296-19.619
			c8.453-8.149,11.696-14.641,11.696-16.451c0-1.358-0.695-1.659-1.506-1.659C495.05,235.267,476.521,255.339,464.826,272.996z"/>
		<path fill="#F59E21" d="M555.615,227.268c7.063,0,13.432,9.357,13.432,17.053c0,7.549-28.717,32.449-49.908,32.601
			c-4.401,7.999-6.022,15.093-6.255,18.264c-0.115,2.261,1.16,3.167,3.012,3.167c6.138,0,16.906-7.094,23.969-12.072
			c10.426-7.246,23.393-17.811,34.162-29.432c0.465-0.453,1.621,0.755,1.158,1.359c-15.864,22.033-45.626,49.956-57.205,49.956
			c-5.558,0-15.054-11.624-15.171-19.018c-0.114-5.434,2.086-12.074,5.56-18.864c5.905-11.472,16.443-23.996,25.592-31.695
			C542.066,231.795,549.71,227.268,555.615,227.268z M521.569,272.996c9.265-2.414,21.308-11.922,29.298-19.619
			c8.453-8.149,11.696-14.641,11.696-16.451c0-1.358-0.696-1.659-1.506-1.659C551.794,235.267,533.266,255.339,521.569,272.996z"/>
	</g>
	<path fill="#FFFFFF" d="M566.714,296.09c-2.2,5.283-2.894,8.753-2.548,9.507c0.811,0.906-0.23,1.51-1.505,1.206
		c-1.274-0.3-7.526-9.354-6.368-13.884c0.695-2.716,2.2-6.188,4.401-10.564l6.02-11.62c4.747-9.056,12.853-24.147,15.748-29.885
		c2.896-5.886,4.516-11.619,2.434-12.979c-0.116,0,0.925-1.206,3.82,1.963c2.315,2.565,6.37,9.811,6.253,11.924
		c0,1.811-4.979,10.262-10.888,20.523c2.896-4.224,6.023-8.299,9.383-12.374c6.6-7.698,20.264-22.941,25.708-24.45
		c2.434-0.603,6.37,6.037,6.022,13.282c-0.115,1.96-0.695,6.639-2.316,8.601c0.116-1.508-0.349-3.168-1.041-4.527
		c-0.927-1.658-3.358-3.168-6.484-2.718c-7.064,1.06-14.246,7.245-22.701,16.604C580.378,270.131,571.461,284.619,566.714,296.09z
		 M647.436,266.356c-0.465,7.699-0.465,15.094-0.926,20.678c-0.927,12.073-9.498,21.279-19.687,21.279
		c-9.033,0-17.721-7.244-23.854-16.3c-9.383,9.206-16.33,13.13-17.72,13.583c-1.853,0.604-7.76,1.66-7.064,1.358
		c5.441-2.264,13.78-9.961,22.697-19.016c-0.579-1.51-0.926-3.02-0.926-4.379c0-5.582,8.224-9.96,17.255-13.279
		c3.243-3.774,6.486-7.849,9.495-11.925c6.948-9.054,15.75-24.751,19.57-32.447c1.273-2.716,2.663-4.073,4.052-4.073
		c2.666,0,9.15,6.188,9.15,7.848c0,0.301,0,0.301-0.349,0.452c-3.474,1.055-5.096,4.828-6.946,9.509
		c-2.895,7.395-4.055,15.694-4.634,23.846c6.602-0.907,13.896-1.812,16.792-1.963c0.117,0,1.272,0,1.272,0.754
		c0,1.358-1.155,1.358-1.39,1.358C659.709,264.243,652.763,265.301,647.436,266.356z M622.537,303.182
		c4.286,0,8.454-4.225,10.307-12.376c1.506-6.641,2.55-14.639,3.359-21.733l-3.127,1.059c-8.918,3.32-23.511,12.525-23.511,17.959
		C609.565,293.976,615.705,303.182,622.537,303.182z M636.666,265.301c0.578-6.489,1.388-12.678,3.125-19.621
		c-4.167,6.642-9.496,13.734-16.094,22.641C627.865,267.111,632.265,266.056,636.666,265.301z"/>
</g>
</svg>
